# xmcd
#
# Track frame offsets:
# 150
# 14823
# 28697
# 45805
# 72015
# 92973
# 110974
# 136286
# 152591
# 176304
# 193598
# 211287
# 236957
# 260666
# 281678
# 302969
# 321467
# 338646
#
# Disc length: 4742 seconds
#
#
# Revision: 2
# Processed by: cddbd v1.5.1PL0 Copyright (c) Steve Scherf et al.
# Submitted via: FreeRIP 2.931 
#
DISCID=0d128412
DTITLE=Dead Or Alive - Evolution: The Hits
DYEAR=2003
DGENRE=New Wave
TTITLE0=You Spin Me Round(Like A Record)
TTITLE1=That's The Way(I Like It)
TTITLE2=In Too Deep
TTITLE3=What I Want
TTITLE4=Misty Circles
TTITLE5=I'd Do Anything
TTITLE6=Lover Come Back To Me(2003 Remix)
TTITLE7=I'll Save You All My Kisses
TTITLE8=Hooked On Love
TTITLE9=Come Home(With Me Baby)
TTITLE10=My Heart Goes Bang(Get Me To The Doctor)
TTITLE11=Sex Drive
TTITLE12=Turn Around And Count To Ten(2003 Remix)
TTITLE13=Hit And Run Lover
TTITLE14=Isn't It A Pity
TTITLE15=Brand New Lover
TTITLE16=Something In My House
TTITLE17=You Spin Me Round(Like A Record)(Metro 7 Inch Edit)
EXTD=
EXTT0=
EXTT1=
EXTT2=
EXTT3=
EXTT4=
EXTT5=
EXTT6=
EXTT7=
EXTT8=
EXTT9=
EXTT10=
EXTT11=
EXTT12=
EXTT13=
EXTT14=
EXTT15=
EXTT16=
EXTT17=
PLAYORDER=
